<svg width="20" height="20" viewBox="0 0 24 24" fill="currentColor">
  <path d="M9.199 13.599a5.99 5.99 0 003.949 2.345 5.987 5.987 0 005.105-1.702l2.995-2.994a5.992 5.992 0 000-8.485 5.989 5.989 0 00-8.484 0l-1.731 1.731a.999.999 0 101.414 1.414l1.731-1.731a3.99 3.99 0 015.656 0 3.992 3.992 0 010 5.656l-2.995 2.994a3.987 3.987 0 01-3.396 1.135 3.99 3.99 0 01-2.632-1.563.999.999 0 00-1.626 1.178v.002zM14.801 10.401a5.99 5.99 0 00-3.949-2.345 5.987 5.987 0 00-5.105 1.702l-2.995 2.994a5.992 5.992 0 000 8.485 5.989 5.989 0 008.484 0l1.731-1.731a.999.999 0 10-1.414-1.414l-1.731 1.731a3.99 3.99 0 01-5.656 0 3.992 3.992 0 010-5.656l2.995-2.994a3.987 3.987 0 013.396-1.135 3.99 3.99 0 012.632 1.563.999.999 0 001.626-1.178v-.002z"/>
</svg>
