<svg width="1024" height="200" viewBox="0 0 1024 200" xmlns="http://www.w3.org/2000/svg">
  <defs>
    <linearGradient id="atomic-banner" x1="0%" y1="0%" x2="100%" y2="0%">
      <stop offset="0%" style="stop-color:#4F46E5;stop-opacity:1" />
      <stop offset="33%" style="stop-color:#7C3AED;stop-opacity:1" />
      <stop offset="67%" style="stop-color:#EC4899;stop-opacity:1" />
      <stop offset="100%" style="stop-color:#F59E0B;stop-opacity:1" />
    </linearGradient>
  </defs>

  <rect width="1024" height="200" fill="url(#atomic-banner)"/>

  <g transform="translate(600,100)">
    <circle cx="0" cy="0" r="12" fill="white"/>
    <circle cx="0" cy="0" r="40" fill="none" stroke="rgba(255,255,255,0.6)" stroke-width="2"/>
    <circle cx="0" cy="0" r="70" fill="none" stroke="rgba(255,255,255,0.4)" stroke-width="2"/>
    <circle cx="0" cy="0" r="100" fill="none" stroke="rgba(255,255,255,0.2)" stroke-width="2"/>

    <circle cx="40" cy="0" r="4" fill="rgba(255,255,255,0.9)"/>
    <circle cx="-28" cy="28" r="4" fill="rgba(255,255,255,0.8)"/>
    <circle cx="50" cy="50" r="4" fill="rgba(255,255,255,0.7)"/>
    <circle cx="-70" cy="0" r="4" fill="rgba(255,255,255,0.6)"/>
    <circle cx="0" cy="-70" r="4" fill="rgba(255,255,255,0.5)"/>
    <circle cx="85" cy="-35" r="4" fill="rgba(255,255,255,0.4)"/>
  </g>

  <g transform="translate(200,50)" opacity="0.3">
    <circle cx="0" cy="0" r="6" fill="white"/>
    <circle cx="0" cy="0" r="20" fill="none" stroke="white" stroke-width="1"/>
    <circle cx="20" cy="0" r="2" fill="white"/>
  </g>

  <g transform="translate(350,150)" opacity="0.4">
    <circle cx="0" cy="0" r="8" fill="white"/>
    <circle cx="0" cy="0" r="25" fill="none" stroke="white" stroke-width="1"/>
    <circle cx="0" cy="25" r="3" fill="white"/>
  </g>

  <g transform="translate(60,160)">
    <rect x="0" y="0" width="300" height="6" fill="rgba(255,255,255,0.2)" rx="3"/>
    <rect x="0" y="0" width="240" height="6" fill="white" rx="3"/>
    <circle cx="60" cy="3" r="2" fill="white"/>
    <circle cx="120" cy="3" r="2" fill="white"/>
    <circle cx="180" cy="3" r="2" fill="white"/>
    <circle cx="240" cy="3" r="2" fill="white"/>
  </g>

  <text x="60" y="70" font-family="sans-serif" font-size="40" font-weight="bold" fill="white">ATOMIC</text>
  <text x="60" y="110" font-family="sans-serif" font-size="40" font-weight="bold" fill="white">HABITS</text>
  <text x="60" y="135" font-family="sans-serif" font-size="16" fill="rgba(255,255,255,0.8)">An Easy &amp; Proven Way to Build Good Habits</text>

  <text x="800" y="40" font-family="sans-serif" font-size="18" font-weight="600" fill="white">JAMES CLEAR</text>
</svg>
