<svg width="1024" height="200" viewBox="0 0 1024 200" xmlns="http://www.w3.org/2000/svg">
  <defs>
    <linearGradient id="dystopian-banner" x1="0%" y1="0%" x2="100%" y2="0%">
      <stop offset="0%" style="stop-color:#0F0F0F;stop-opacity:1" />
      <stop offset="30%" style="stop-color:#1F1F1F;stop-opacity:1" />
      <stop offset="70%" style="stop-color:#2D2D2D;stop-opacity:1" />
      <stop offset="100%" style="stop-color:#1F1F1F;stop-opacity:1" />
    </linearGradient>
  </defs>

  <rect width="1024" height="200" fill="url(#dystopian-banner)"/>

  <g transform="translate(800,100)">
    <circle cx="0" cy="0" r="60" fill="rgba(220,20,60,0.8)"/>
    <circle cx="0" cy="0" r="40" fill="white"/>
    <circle cx="0" cy="0" r="25" fill="black"/>
    <circle cx="5" cy="-5" r="8" fill="rgba(255,255,255,0.7)"/>
  </g>

  <g stroke="rgba(220,20,60,0.3)" stroke-width="1" fill="none">
    <line x1="0" y1="40" x2="1024" y2="40"/>
    <line x1="0" y1="80" x2="1024" y2="80"/>
    <line x1="0" y1="120" x2="1024" y2="120"/>
    <line x1="0" y1="160" x2="1024" y2="160"/>
    <line x1="150" y1="0" x2="150" y2="200"/>
    <line x1="300" y1="0" x2="300" y2="200"/>
    <line x1="450" y1="0" x2="450" y2="200"/>
    <line x1="600" y1="0" x2="600" y2="200"/>
  </g>

  <g stroke="rgba(220,20,60,0.4)" stroke-width="2" fill="none">
    <line x1="800" y1="100" x2="100" y2="50"/>
    <line x1="800" y1="100" x2="200" y2="150"/>
    <line x1="800" y1="100" x2="300" y2="80"/>
    <line x1="800" y1="100" x2="400" y2="130"/>
  </g>

  <text x="60" y="80" font-family="sans-serif" font-size="64" font-weight="bold" fill="white">1984</text>
  <text x="60" y="110" font-family="sans-serif" font-size="24" fill="rgba(255,255,255,0.9)">GEORGE ORWELL</text>
  <text x="60" y="135" font-family="sans-serif" font-size="14" fill="rgba(220,20,60,0.8)">BIG BROTHER IS WATCHING</text>
</svg>
